<?xml version="1.0" standalone="no"?>
<!DOCTYPE svg PUBLIC "-//W3C//DTD SVG 20010904//EN"
 "http://www.w3.org/TR/2001/REC-SVG-20010904/DTD/svg10.dtd">
<svg version="1.0" xmlns="http://www.w3.org/2000/svg"
 width="412.000000pt" height="412.000000pt" viewBox="0 0 412.000000 412.000000"
 preserveAspectRatio="xMidYMid meet">
<metadata>
Created by potrace 1.14, written by Peter Selinger 2001-2017
</metadata>
<g transform="translate(0.000000,412.000000) scale(0.100000,-0.100000)"
fill="#000000" stroke="none">
<path d="M537 3813 c-10 -10 -8 -155 3 -258 26 -240 32 -291 50 -435 41 -327
79 -510 127 -618 25 -56 29 -120 13 -181 -5 -20 -16 -70 -25 -111 -42 -196
-68 -275 -131 -395 -26 -50 -80 -140 -120 -202 -41 -62 -74 -114 -74 -117 0
-2 -23 -41 -50 -85 -28 -44 -50 -84 -50 -88 0 -5 -9 -19 -20 -33 -24 -30 -26
-60 -4 -60 8 0 50 11 91 25 42 14 83 23 90 20 18 -6 -56 -67 -162 -131 -41
-25 -75 -51 -75 -59 0 -23 97 -95 188 -141 l87 -44 -52 0 c-29 0 -53 -4 -53
-8 0 -4 15 -22 32 -39 67 -64 266 -144 453 -183 22 -4 99 -20 170 -35 72 -15
150 -31 175 -36 203 -38 285 -59 309 -78 29 -24 106 -61 125 -61 7 0 46 -22
87 -49 117 -78 179 -96 334 -96 156 0 242 23 344 93 35 24 87 51 115 59 28 8
68 28 90 45 35 28 64 36 329 89 487 98 650 147 770 234 63 47 62 65 -5 66 -32
1 -45 4 -33 7 65 22 192 101 235 146 30 33 22 51 -40 84 -23 12 -76 47 -118
77 -89 66 -79 78 32 41 90 -30 106 -32 106 -9 0 20 -64 132 -188 328 -159 251
-213 368 -251 540 -7 28 -23 99 -36 158 -29 125 -30 157 -11 195 8 15 25 61
39 102 23 68 30 101 58 240 8 43 45 315 68 500 6 47 18 174 28 282 23 261 36
245 -167 198 -168 -39 -382 -120 -555 -209 -143 -74 -234 -134 -319 -210 -38
-33 -74 -61 -80 -61 -6 0 -38 9 -70 20 -85 29 -231 50 -338 50 -98 0 -272 -27
-348 -54 -25 -9 -50 -16 -55 -16 -6 0 -37 25 -70 55 -33 30 -96 79 -141 110
-82 55 -351 195 -376 195 -8 0 -18 4 -24 9 -25 24 -424 141 -479 141 -12 0
-25 -3 -28 -7z"/>
</g>
</svg>
